<svg id="visual" viewBox="0 0 900 600" width="900" height="600" xmlns="http://www.w3.org/2000/svg" xmlns:xlink="http://www.w3.org/1999/xlink" version="1.1"><path d="M0 43L13.7 49C27.3 55 54.7 67 82 75C109.3 83 136.7 87 163.8 80C191 73 218 55 245.2 50C272.3 45 299.7 53 327 64C354.3 75 381.7 89 409 89C436.3 89 463.7 75 491 66C518.3 57 545.7 53 573 54C600.3 55 627.7 61 654.8 63C682 65 709 63 736.2 65C763.3 67 790.7 73 818 75C845.3 77 872.7 75 886.3 74L900 73L900 0L886.3 0C872.7 0 845.3 0 818 0C790.7 0 763.3 0 736.2 0C709 0 682 0 654.8 0C627.7 0 600.3 0 573 0C545.7 0 518.3 0 491 0C463.7 0 436.3 0 409 0C381.7 0 354.3 0 327 0C299.7 0 272.3 0 245.2 0C218 0 191 0 163.8 0C136.7 0 109.3 0 82 0C54.7 0 27.3 0 13.7 0L0 0Z" fill="#ec9059"></path><path d="M0 163L13.7 166C27.3 169 54.7 175 82 182C109.3 189 136.7 197 163.8 195C191 193 218 181 245.2 168C272.3 155 299.7 141 327 139C354.3 137 381.7 147 409 150C436.3 153 463.7 149 491 140C518.3 131 545.7 117 573 115C600.3 113 627.7 123 654.8 136C682 149 709 165 736.2 176C763.3 187 790.7 193 818 182C845.3 171 872.7 143 886.3 129L900 115L900 71L886.3 72C872.7 73 845.3 75 818 73C790.7 71 763.3 65 736.2 63C709 61 682 63 654.8 61C627.7 59 600.3 53 573 52C545.7 51 518.3 55 491 64C463.7 73 436.3 87 409 87C381.7 87 354.3 73 327 62C299.7 51 272.3 43 245.2 48C218 53 191 71 163.8 78C136.7 85 109.3 81 82 73C54.7 65 27.3 53 13.7 47L0 41Z" fill="#f6a16d"></path><path d="M0 361L13.7 350C27.3 339 54.7 317 82 324C109.3 331 136.7 367 163.8 371C191 375 218 347 245.2 331C272.3 315 299.7 311 327 302C354.3 293 381.7 279 409 273C436.3 267 463.7 269 491 263C518.3 257 545.7 243 573 240C600.3 237 627.7 245 654.8 265C682 285 709 317 736.2 336C763.3 355 790.7 361 818 362C845.3 363 872.7 359 886.3 357L900 355L900 113L886.3 127C872.7 141 845.3 169 818 180C790.7 191 763.3 185 736.2 174C709 163 682 147 654.8 134C627.7 121 600.3 111 573 113C545.7 115 518.3 129 491 138C463.7 147 436.3 151 409 148C381.7 145 354.3 135 327 137C299.7 139 272.3 153 245.2 166C218 179 191 191 163.8 193C136.7 195 109.3 187 82 180C54.7 173 27.3 167 13.7 164L0 161Z" fill="#ffb282"></path><path d="M0 469L13.7 464C27.3 459 54.7 449 82 458C109.3 467 136.7 495 163.8 499C191 503 218 483 245.2 459C272.3 435 299.7 407 327 387C354.3 367 381.7 355 409 361C436.3 367 463.7 391 491 396C518.3 401 545.7 387 573 388C600.3 389 627.7 405 654.8 423C682 441 709 461 736.2 467C763.3 473 790.7 465 818 459C845.3 453 872.7 449 886.3 447L900 445L900 353L886.3 355C872.7 357 845.3 361 818 360C790.7 359 763.3 353 736.2 334C709 315 682 283 654.8 263C627.7 243 600.3 235 573 238C545.7 241 518.3 255 491 261C463.7 267 436.3 265 409 271C381.7 277 354.3 291 327 300C299.7 309 272.3 313 245.2 329C218 345 191 373 163.8 369C136.7 365 109.3 329 82 322C54.7 315 27.3 337 13.7 348L0 359Z" fill="#ffbd96"></path><path d="M0 601L13.7 601C27.3 601 54.7 601 82 601C109.3 601 136.7 601 163.8 601C191 601 218 601 245.2 601C272.3 601 299.7 601 327 601C354.3 601 381.7 601 409 601C436.3 601 463.7 601 491 601C518.3 601 545.7 601 573 601C600.3 601 627.7 601 654.8 601C682 601 709 601 736.2 601C763.3 601 790.7 601 818 601C845.3 601 872.7 601 886.3 601L900 601L900 443L886.3 445C872.7 447 845.3 451 818 457C790.7 463 763.3 471 736.2 465C709 459 682 439 654.8 421C627.7 403 600.3 387 573 386C545.7 385 518.3 399 491 394C463.7 389 436.3 365 409 359C381.7 353 354.3 365 327 385C299.7 405 272.3 433 245.2 457C218 481 191 501 163.8 497C136.7 493 109.3 465 82 456C54.7 447 27.3 457 13.7 462L0 467Z" fill="#ffc9aa"></path></svg>